<?xml version="1.0" standalone="no"?>
<!DOCTYPE svg PUBLIC "-//W3C//DTD SVG 20010904//EN"
 "http://www.w3.org/TR/2001/REC-SVG-20010904/DTD/svg10.dtd">
<svg version="1.0" xmlns="http://www.w3.org/2000/svg"
 width="844.000000pt" height="844.000000pt" viewBox="0 0 844.000000 844.000000"
 preserveAspectRatio="xMidYMid meet">
<metadata>
Created by potrace 1.11, written by Peter Selinger 2001-2013
</metadata>
<g transform="translate(0.000000,844.000000) scale(0.100000,-0.100000)"
fill="#000000" stroke="none">
<path d="M1185 8426 c-258 -41 -466 -181 -561 -381 -69 -143 -64 163 -64
-3825 0 -3150 2 -3624 15 -3685 58 -273 293 -471 615 -520 143 -22 5927 -22
6070 0 321 48 557 248 615 520 22 106 22 7264 0 7370 -58 274 -291 471 -615
520 -81 13 -519 15 -3045 14 -2305 -1 -2968 -4 -3030 -13z m4635 -1862 c74
-22 152 -100 174 -174 21 -71 21 -239 0 -309 -19 -66 -81 -136 -149 -167 l-50
-24 -1585 0 -1585 0 -50 24 c-68 31 -131 104 -151 174 -25 83 -16 271 15 335
29 59 101 123 160 141 39 12 291 15 1607 15 1395 1 1566 -1 1614 -15z m32
-1817 c61 -30 95 -64 131 -131 20 -37 22 -56 22 -186 0 -130 -2 -149 -22 -186
-36 -67 -70 -101 -131 -131 l-57 -28 -1586 0 -1585 0 -59 30 c-110 56 -155
147 -155 315 0 152 40 247 126 301 81 49 27 48 1694 46 l1565 -2 57 -28z m6
-1728 c111 -55 152 -141 152 -314 0 -140 -17 -194 -84 -261 -92 -91 54 -84
-1716 -84 -1724 0 -1616 -4 -1698 66 -24 20 -55 59 -69 88 -23 44 -27 66 -31
167 -3 89 0 129 12 173 21 71 81 140 151 172 l50 24 1586 0 1586 0 61 -31z"/>
</g>
</svg>
